<!DOCTYPE svg PUBLIC "-//W3C//DTD SVG 1.1//EN" "http://www.w3.org/Graphics/SVG/1.1/DTD/svg11.dtd">

<svg height="800px" width="800px" version="1.1" id="Layer_1" xmlns="http://www.w3.org/2000/svg" xmlns:xlink="http://www.w3.org/1999/xlink" viewBox="0 0 512 512" xml:space="preserve" fill="#000000">

<g id="SVGRepo_bgCarrier" stroke-width="0"/>

<g id="SVGRepo_tracerCarrier" stroke-linecap="round" stroke-linejoin="round"/>

<g id="SVGRepo_iconCarrier"> <g> <path style="fill:#000000;" d="M423.724,512H88.276C39.521,512,0,472.479,0,423.724V88.276C0,39.521,39.521,0,88.276,0h335.448 C472.479,0,512,39.521,512,88.276v335.448C512,472.479,472.479,512,423.724,512"/> <g> <polygon style="fill:#FFFFFF;" points="185.379,167.724 185.379,229.517 132.414,229.517 132.414,167.724 88.276,167.724 88.276,344.276 132.414,344.276 132.414,282.483 185.379,282.483 185.379,344.276 229.517,344.276 229.517,167.724 "/> <path style="fill:#FFFFFF;" d="M370.759,300.138h-44.138v-88.276h44.138c9.754,0,17.655,7.901,17.655,17.655v52.966 C388.414,292.237,380.513,300.138,370.759,300.138L370.759,300.138z M282.483,167.724v176.552h105.931 c24.373,0,44.138-19.765,44.138-44.138v-88.276c0-24.373-19.765-44.138-44.138-44.138H282.483z"/> </g> </g> </g>

</svg>